<?xml version="1.0" standalone="no"?>
<!DOCTYPE svg PUBLIC "-//W3C//DTD SVG 20010904//EN"
 "http://www.w3.org/TR/2001/REC-SVG-20010904/DTD/svg10.dtd">
<svg version="1.0" xmlns="http://www.w3.org/2000/svg"
 width="2480.000000pt" height="2480.000000pt" viewBox="0 0 2480.000000 2480.000000"
 preserveAspectRatio="xMidYMid meet">

<g transform="translate(0.000000,2480.000000) scale(0.100000,-0.100000)"
fill="#000000" stroke="none">
<path d="M10094 14928 l-6300 -6323 6301 -5 6300 -5 5 -2210 5 -2211 1793
2213 1792 2213 0 1645 0 1645 -4182 2 -4182 3 4171 4656 c2294 2562 4176 4666
4182 4678 l12 21 -1799 0 -1799 0 -6299 -6322z"/>
<path d="M18188 15360 l-1786 -2205 1786 -3 c982 -1 1787 -1 1789 1 2 2 2 996
1 2208 l-3 2205 -1787 -2206z"/>
</g>
</svg>
